<?xml version="1.0" encoding="utf-8"?>
<!-- Generator: Adobe Illustrator 26.0.3, SVG Export Plug-In . SVG Version: 6.00 Build 0)  -->
<svg version="1.1" id="Layer_1" xmlns="http://www.w3.org/2000/svg" xmlns:xlink="http://www.w3.org/1999/xlink" x="0px" y="0px"
	 viewBox="0 0 584 166" style="enable-background:new 0 0 584 166;" xml:space="preserve">
<style type="text/css">
	.st0{fill:#D6002A;}
</style>
<g>
	<path id="Wordmark_00000031206098800008533020000007642302567670319787_" class="st0" d="M41,59.6c0,3.7-1.3,7.2-3.9,9.9
		c-3.7,3.7-9.1,4.9-14.1,5.1c-5.4,0.1-11-1.2-15-4.9c-3.1-2.8-4.9-6.8-4.9-11h8.8c0,2.2,0.9,4.3,2.5,5.8c2.1,2.1,5.3,2.6,8.1,2.5
		c2.7,0,6-0.4,8-2.5c2.1-2.3,2.9-6.4,0-8.5c-2.9-2.2-7.1-2.1-10.6-2.4c-3.6-0.3-7.4-1-10.4-3.1c-2.9-2.1-4.7-5.3-5.1-8.8
		c-0.4-4.2,1.1-8.1,4-11c3.4-3.4,8.5-4.9,13.3-5c4.9-0.1,10.2,1.2,13.8,4.6c2.8,2.6,4.7,6.2,4.8,10.1h-8.8c-0.1-1.7-0.9-3.4-2.1-4.7
		c-1.8-1.9-4.9-2.6-7.4-2.5c-2.7,0-5.6,0.6-7.5,2.6c-2.3,2.5-2.2,6.8,1,8.4c1.6,0.8,3.6,0.9,5.4,1.1c2,0.2,3.9,0.4,5.9,0.6
		c3.7,0.5,7.4,1.6,10.2,4.2C39.7,52.5,41,56,41,59.6z M78.2,73.8L74.9,70c-5.5,4.9-14.1,6.5-20.9,3.3c-6.5-3-9.9-10.6-7.4-17.4
		c1.3-3.6,4.4-6.3,7.6-8.3c-3.2-3.4-5.5-7.1-5-11.9c0.5-4.2,3.4-7.8,7.3-9.3c4.2-1.6,9.4-1.3,13.3,1.1c3.8,2.3,5.6,6.4,5.2,10.7
		c-0.4,5.4-4.5,9-8.9,11.5l8.2,8.9c0.9-1.7,1-3.9,1.2-5.8c0.2-1.9,0.1-3.9,0.1-5.8h12.2v6.6h-5.5c-0.2,3.7-0.8,7.5-2.9,10.6l8.7,9.5
		L78.2,73.8L78.2,73.8z M59.1,52.9c-2.2,1.4-4.6,2.8-5.4,5.5c-0.7,2.4-0.1,5.2,1.7,7c3.5,3.6,11.1,3.2,14.4-0.5L59.1,52.9z
		 M67.3,37.5c0-2-0.9-3.8-2.8-4.6c-1.9-0.9-4.3-0.6-6,0.6c-1.7,1.2-2.1,3.5-1.5,5.4c0.7,2.3,2.6,4,4.2,5.6
		C64.1,42.9,67.3,41.2,67.3,37.5z M129.8,41.6c0,4.3-1.4,8.6-4.7,11.4c-3.3,2.8-7.7,3.8-11.9,3.8h-10v16.9h-8.5V26.5h18.5
		c4.2,0,8.7,1,11.9,3.7C128.4,33,129.8,37.3,129.8,41.6z M121.1,41.7c0-2.2-0.7-4.4-2.4-5.9c-1.6-1.4-3.9-1.8-6-1.8H103v15.3h9.7
		c2.1,0,4.4-0.3,6-1.8C120.4,46,121.1,43.8,121.1,41.7z M180.3,73.7l-1-5.2c-2.3,4.4-8,6.2-12.6,6.1c-5-0.1-9.8-1.5-13.3-5.3
		c-5-5.2-6.1-12.3-6.1-19.2s1-13.9,6.1-19c7.2-7.2,20.8-7.6,28.1-0.1c2.5,2.6,4.1,5.9,4.3,9.5H177c-0.2-1.7-1-3-2.1-4.3
		c-3.7-4.3-11.6-3.6-15.3,0.3c-3.4,3.6-3.7,9.1-3.7,13.8c0,4.6,0.4,10.1,3.7,13.6c3.6,3.9,11.1,4.1,14.7,0.3
		c2.4-2.5,3.1-5.8,3.1-9.2h-11.3v-7.1h19.6v25.9C185.8,73.7,180.3,73.7,180.3,73.7z M206.6,73.6c-3.1,0.7-6.5,0.8-9.3-0.9
		c-2.9-1.7-3.8-4.8-3.8-8V25.5h8.4v37.9c0,1.1,0.2,2.4,1.2,3c1.1,0.6,2.4,0.3,3.5,0.3L206.6,73.6L206.6,73.6z M242,56.4
		c0,4.7-1.1,9.1-4.1,12.8c-5.9,7.2-18.4,7.2-24.3,0c-5.6-7.1-5.6-18.5,0-25.6c5.9-7.2,18.4-7.2,24.3,0C240.9,47.3,242,51.7,242,56.4
		z M233.5,56.4c0-3-0.3-6.4-2.5-8.7c-2.7-2.9-7.8-2.9-10.5,0c-2.1,2.3-2.5,5.7-2.5,8.7s0.3,6.4,2.5,8.7c2.7,2.9,7.8,2.9,10.5,0
		C233.2,62.8,233.5,59.4,233.5,56.4z M280.4,56.5c0,5.7-1.6,11.5-6.2,15.1c-5,4.2-14.4,4.2-18.1-1.7l-0.5,3.8h-7.2V25.6h8.3v16
		c1.9-2.4,5.4-3.3,8.3-3.4c3.3-0.1,6.6,0.6,9.2,2.8C278.4,44.4,280.4,49.6,280.4,56.5z M272,56.3c0-2.9-0.4-6-2.2-8.4
		c-1.8-2.1-4.3-3-7-2.6c-2.6,0.4-4.5,2.3-5.5,4.7c-1,2.6-1.1,5.7-0.9,8.5c0.3,2.7,0.8,5.4,2.9,7.3c3,2.8,7.9,2.1,10.5-1
		C271.6,62.4,272,59.2,272,56.3z M317.4,73.3c-3.8,1.7-9.5,1.2-10-3.9c-3.1,5.5-11.4,6.4-16.6,4c-2.9-1.3-5.2-3.7-6-6.9
		c-0.9-3.2-0.3-6.7,1.8-9.3c2.3-2.9,6-4.1,9.5-4.4l10.2-0.7V50c0-1.5-0.4-3.4-1.6-4.4c-1.1-0.9-2.6-1-3.9-1.1
		c-3.3-0.1-6.5,1.2-6.7,4.9H286c0.2-3.1,1.4-6.1,3.9-8.2c2.4-1.9,5.5-2.8,8.6-3c5.8-0.5,12.6,1,14.9,7c0.9,2.2,1,4.6,1,7v12.9
		c0,1.5,1,2.7,2.7,2.1c0.1,0,0.2,0,0.3-0.1V73.3L317.4,73.3z M306.3,58.3l-8.8,0.7c-2.3,0.2-4.7,1.5-5,4.1c-0.2,2.6,1.7,4.5,4.2,4.8
		c2.3,0.3,5-0.4,6.9-1.8c1.9-1.5,2.7-3.7,2.7-6.1L306.3,58.3L306.3,58.3z M335.7,73.6c-3.2,0.7-6.6,0.8-9.4-1
		c-2.8-1.7-3.7-4.8-3.7-7.9V25.5h8.4v37.9c0,1.1,0.2,2.4,1.2,3c1.1,0.6,2.4,0.3,3.5,0.3V73.6L335.7,73.6z"/>
	<rect id="Bar_00000047045111311134569830000003974938844411220385_" x="3.1" y="3" width="332.7" height="8.5"/>
	<g>
		<path d="M44.8,147v-43.1l-17.6,42.4h-3.1L6.5,104.2V147H3V98.8h5l17.8,42.8l17.5-42.8h5V147H44.8z"/>
		<path d="M88.3,130c0,2.9-0.4,5.5-1.1,7.8s-2,4.3-3.7,6.1c-1.2,1.2-2.6,2.2-4.2,2.9c-1.7,0.8-3.5,1.2-5.7,1.2c-2.1,0-4-0.4-5.7-1.2
			s-3.1-1.7-4.2-2.9c-1.8-1.8-3-3.8-3.7-6.1s-1.1-4.9-1.1-7.8c0-2.9,0.4-5.5,1.1-7.8c0.7-2.3,2-4.3,3.7-6.1c1.2-1.2,2.6-2.2,4.2-2.9
			c1.7-0.8,3.5-1.2,5.7-1.2c2.1,0,4,0.4,5.7,1.2c1.7,0.8,3.1,1.7,4.2,2.9c1.8,1.8,3,3.8,3.7,6.1C87.9,124.5,88.3,127.1,88.3,130z
			 M84.8,130c0-2.2-0.2-4.3-0.7-6.3c-0.5-1.9-1.5-3.7-3.1-5.3c-0.9-0.9-2-1.6-3.2-2.2c-1.2-0.5-2.7-0.8-4.3-0.8
			c-1.6,0-3.1,0.3-4.3,0.8s-2.3,1.3-3.2,2.2c-1.5,1.6-2.6,3.4-3.1,5.3s-0.7,4-0.7,6.3c0,2.2,0.2,4.3,0.7,6.3
			c0.5,1.9,1.5,3.7,3.1,5.3c0.9,0.9,2,1.6,3.2,2.2c1.2,0.5,2.7,0.8,4.3,0.8c1.6,0,3.1-0.3,4.3-0.8c1.2-0.5,2.3-1.3,3.2-2.2
			c1.5-1.6,2.6-3.4,3.1-5.3C84.6,134.3,84.8,132.2,84.8,130z"/>
		<path d="M127.3,130.1c0,2.9-0.5,5.7-1.4,8.3s-2.3,4.7-4.2,6.4c-1.1,1-2.4,1.8-3.9,2.3c-1.5,0.6-3.2,0.9-5.1,0.9
			c-1.1,0-2.3-0.2-3.4-0.5c-1.2-0.3-2.2-0.8-3.2-1.4s-1.9-1.3-2.7-2.2c-0.8-0.9-1.5-1.8-1.9-2.9l-0.4,6h-3V97.9h3.4v20.8
			c0.5-1,1.1-1.8,1.9-2.7c0.8-0.8,1.7-1.5,2.7-2.1s2.1-1,3.2-1.4c1.2-0.3,2.3-0.5,3.6-0.5c2,0,3.8,0.3,5.3,1s2.8,1.5,4,2.6
			c1.8,1.7,3.1,3.9,4,6.4C126.9,124.6,127.3,127.3,127.3,130.1z M123.8,130c0-2.2-0.3-4.3-0.9-6.3s-1.6-3.8-2.9-5.2
			c-0.9-0.9-1.9-1.6-3.1-2.2c-1.2-0.5-2.6-0.8-4.1-0.8c-1.6,0-3,0.2-4.1,0.7c-1.2,0.5-2.2,1.1-3,1.9c-1.6,1.5-2.7,3.2-3.3,5.1
			c-0.6,2-1,4.2-1,6.8c0,2.4,0.3,4.5,1,6.6c0.7,2,1.8,3.8,3.3,5.3c0.9,0.8,1.9,1.5,3,2s2.4,0.7,3.9,0.7c1.4,0,2.7-0.2,3.8-0.6
			c1.1-0.4,2.1-1,2.9-1.8c1.6-1.4,2.7-3.2,3.4-5.3C123.5,134.7,123.8,132.5,123.8,130z"/>
		<path d="M136.1,103.6v-4.8h4.8v4.8H136.1z M136.7,147v-34h3.6v34H136.7z"/>
		<path d="M162.4,147c-0.4,0.1-0.8,0.2-1.3,0.3s-1.1,0.1-1.8,0.1c-2.2,0-3.9-0.6-5-1.7c-1.2-1.2-1.8-3-1.8-5.5V97.9h3.4v42.2
			c0,1.2,0.2,2.2,0.7,2.9c0.5,0.8,1.4,1.2,2.9,1.2c0.7,0,1.2,0,1.6,0c0.4,0,0.8,0,1.3-0.1L162.4,147L162.4,147z"/>
		<path d="M170,103.6v-4.8h4.8v4.8H170z M170.6,147v-34h3.6v34H170.6z"/>
		<path d="M204.1,146.7c-1,0.2-1.9,0.4-2.8,0.6c-0.9,0.2-1.9,0.2-2.8,0.2c-3.2,0-5.4-0.9-6.8-2.8c-1.3-1.8-2-4.2-2-7.2v-21.4h-6.8
			V113h6.8v-9.4l3.4-0.8V113h10.5v3.1h-10.5v21.3c0,1,0.1,1.9,0.2,2.8c0.2,0.8,0.5,1.6,0.9,2.2c0.4,0.6,1,1.1,1.7,1.4
			c0.7,0.3,1.7,0.5,2.8,0.5c0.9,0,1.8-0.1,2.7-0.2s1.8-0.3,2.7-0.4L204.1,146.7L204.1,146.7z"/>
		<path d="M225.3,154.3c-0.9,2.2-2,3.9-3.5,5.1c-1.5,1.2-3.4,1.8-5.7,1.8c-0.7,0-1.3,0-1.8-0.1s-1-0.1-1.4-0.2
			c-0.5-0.1-0.8-0.2-1.1-0.3v-2.9c0.5,0.1,0.9,0.2,1.4,0.2c0.8,0.1,1.7,0.2,2.7,0.2c1.6,0,2.9-0.5,3.9-1.4c1-1,1.7-2.2,2.3-3.6
			l2.2-5.6L210.4,113h3.7l11.9,30.2l11.4-30.2h3.7L225.3,154.3z"/>
	</g>
</g>
</svg>
